M48
;GenerationSoftware,Autodesk,EAGLE,9.4.2*%
;CreationDate,2019-09-04T15:34:42Z*%
FMAT,2
ICI,OFF
METRIC,TZ,000.000
T5C0.700
T4C0.813
T3C0.914
T2C1.000
T1C1.016
%
G90
M71
T1
X39370Y24130
X63500Y52705
X90170Y4445
X87630Y4445
X31750Y5080
X24130Y7620
X26670Y7620
X29210Y7620
X31750Y7620
X77470Y4445
X80010Y4445
X50800Y4445
X82550Y4445
X53340Y4445
X55880Y4445
X58420Y4445
X60960Y4445
X63500Y4445
X66040Y4445
X68580Y4445
X72390Y4445
X74930Y4445
X39370Y19050
X39370Y21590
X85090Y4445
X39370Y26670
X24130Y5080
X26670Y5080
X29210Y5080
X60960Y52705
X58420Y52705
X55880Y52705
X53340Y52705
X50800Y52705
X81280Y52705
X78740Y52705
X76200Y52705
X73660Y52705
X71120Y52705
X68580Y52705
X86360Y52705
X92710Y4445
X95250Y4445
X83820Y52705
T2
X60960Y33020
X63500Y33020
X58420Y33020
T3
X27940Y24130
X10160Y20320
X7620Y35560
X7620Y38100
X10160Y35560
X10160Y38100
X12700Y35560
X12700Y38100
X7620Y20320
X7620Y22860
X10160Y22860
X12700Y20320
X12700Y22860
X78105Y33020
X78105Y35560
X80645Y33020
X80645Y35560
X83185Y33020
X83185Y35560
X58420Y16510
X58420Y19050
X7620Y5080
X60960Y19050
X63500Y16510
X63500Y19050
X78105Y16510
X78105Y19050
X80645Y16510
X80645Y19050
X83185Y16510
X83185Y19050
X7620Y7620
X10160Y5080
X60960Y16510
X10160Y7620
X12700Y5080
X12700Y7620
X27940Y16510
T4
X69850Y41910
X59690Y41910
X55245Y41910
X52705Y41910
X32766Y41910
X32766Y31750
X52705Y33020
X50165Y33020
X50292Y24892
X50292Y14732
T5
X24638Y38530
X24638Y35130
M30