G04 EAGLE Gerber RS-274X export*
G75*
%MOMM*%
%FSLAX34Y34*%
%LPD*%
%INSolderpaste Top*%
%IPPOS*%
%AMOC8*
5,1,8,0,0,1.08239X$1,22.5*%
G01*
%ADD10C,1.400000*%
%ADD11P,1.429621X8X112.500000*%
%ADD12P,1.539592X8X22.500000*%
%ADD13C,1.524000*%
%ADD14P,1.649562X8X22.500000*%
%ADD15P,2.336880X8X112.500000*%
%ADD16C,1.508000*%
%ADD17P,1.429621X8X202.500000*%
%ADD18P,1.429621X8X292.500000*%


D10*
X246380Y385300D03*
X246380Y351300D03*
D11*
X327660Y317500D03*
X327660Y419100D03*
D12*
X76200Y355600D03*
X76200Y381000D03*
X101600Y355600D03*
X101600Y381000D03*
X127000Y355600D03*
X127000Y381000D03*
X76200Y203200D03*
X76200Y228600D03*
X101600Y203200D03*
X101600Y228600D03*
X127000Y203200D03*
X127000Y228600D03*
X76200Y50800D03*
X76200Y76200D03*
X101600Y50800D03*
X101600Y76200D03*
X127000Y50800D03*
X127000Y76200D03*
D13*
X386080Y190500D02*
X401320Y190500D01*
X401320Y215900D02*
X386080Y215900D01*
X386080Y241300D02*
X401320Y241300D01*
X401320Y266700D02*
X386080Y266700D01*
D14*
X241300Y50800D03*
X266700Y50800D03*
X292100Y50800D03*
X317500Y50800D03*
X241300Y76200D03*
X266700Y76200D03*
X292100Y76200D03*
X317500Y76200D03*
D15*
X279400Y165100D03*
X279400Y241300D03*
D13*
X508000Y52070D02*
X508000Y36830D01*
X533400Y36830D02*
X533400Y52070D01*
X558800Y52070D02*
X558800Y36830D01*
X584200Y36830D02*
X584200Y52070D01*
X609600Y52070D02*
X609600Y36830D01*
X635000Y36830D02*
X635000Y52070D01*
X660400Y52070D02*
X660400Y36830D01*
X685800Y36830D02*
X685800Y52070D01*
X723900Y52070D02*
X723900Y36830D01*
X749300Y36830D02*
X749300Y52070D01*
X774700Y52070D02*
X774700Y36830D01*
X800100Y36830D02*
X800100Y52070D01*
X825500Y52070D02*
X825500Y36830D01*
X850900Y36830D02*
X850900Y52070D01*
X876300Y52070D02*
X876300Y36830D01*
X901700Y36830D02*
X901700Y52070D01*
X635000Y519430D02*
X635000Y534670D01*
X609600Y534670D02*
X609600Y519430D01*
X584200Y519430D02*
X584200Y534670D01*
X558800Y534670D02*
X558800Y519430D01*
X533400Y519430D02*
X533400Y534670D01*
X508000Y534670D02*
X508000Y519430D01*
X812800Y519430D02*
X812800Y534670D01*
X787400Y534670D02*
X787400Y519430D01*
X762000Y519430D02*
X762000Y534670D01*
X736600Y534670D02*
X736600Y519430D01*
X711200Y519430D02*
X711200Y534670D01*
X685800Y534670D02*
X685800Y519430D01*
D12*
X781050Y330200D03*
X781050Y355600D03*
X806450Y330200D03*
X806450Y355600D03*
X831850Y330200D03*
X831850Y355600D03*
X584200Y165100D03*
X584200Y190500D03*
X609600Y165100D03*
X609600Y190500D03*
X635000Y165100D03*
X635000Y190500D03*
X781050Y165100D03*
X781050Y190500D03*
X806450Y165100D03*
X806450Y190500D03*
X831850Y165100D03*
X831850Y190500D03*
D16*
X584200Y322660D02*
X584200Y337740D01*
X609600Y337740D02*
X609600Y322660D01*
X635000Y322660D02*
X635000Y337740D01*
D17*
X698500Y419100D03*
X596900Y419100D03*
X552450Y419100D03*
X527050Y419100D03*
D13*
X927100Y52070D02*
X927100Y36830D01*
X952500Y36830D02*
X952500Y52070D01*
X838200Y519430D02*
X838200Y534670D01*
X863600Y534670D02*
X863600Y519430D01*
D17*
X527050Y330200D03*
X501650Y330200D03*
D18*
X502920Y248920D03*
X502920Y147320D03*
M02*
