G04 EAGLE Gerber RS-274X export*
G75*
%MOMM*%
%FSLAX34Y34*%
%LPD*%
%IN*%
%IPPOS*%
%AMOC8*
5,1,8,0,0,1.08239X$1,22.5*%
G01*
%ADD10C,0.254000*%
%ADD11C,0.152400*%
%ADD12C,0.254000*%


D10*
X50800Y0D02*
X406400Y0D01*
X0Y50800D02*
X0Y406400D01*
X514350Y0D02*
X946150Y0D01*
X996950Y50800D02*
X996950Y520700D01*
X946150Y571500D02*
X514350Y571500D01*
X50800Y457200D02*
X49572Y457185D01*
X48346Y457141D01*
X47120Y457067D01*
X45897Y456963D01*
X44677Y456830D01*
X43460Y456667D01*
X42247Y456475D01*
X41040Y456254D01*
X39838Y456003D01*
X38643Y455724D01*
X37454Y455416D01*
X36274Y455079D01*
X35102Y454714D01*
X33939Y454320D01*
X32786Y453899D01*
X31644Y453450D01*
X30512Y452973D01*
X29393Y452469D01*
X28286Y451938D01*
X27192Y451381D01*
X26112Y450798D01*
X25046Y450188D01*
X23996Y449553D01*
X22961Y448893D01*
X21942Y448208D01*
X20941Y447498D01*
X19956Y446765D01*
X18990Y446007D01*
X18042Y445227D01*
X17113Y444424D01*
X16204Y443599D01*
X15316Y442752D01*
X14448Y441884D01*
X13601Y440996D01*
X12776Y440087D01*
X11973Y439158D01*
X11193Y438210D01*
X10435Y437244D01*
X9702Y436259D01*
X8992Y435258D01*
X8307Y434239D01*
X7647Y433204D01*
X7012Y432154D01*
X6402Y431088D01*
X5819Y430008D01*
X5262Y428914D01*
X4731Y427807D01*
X4227Y426688D01*
X3750Y425556D01*
X3301Y424414D01*
X2880Y423261D01*
X2486Y422098D01*
X2121Y420926D01*
X1784Y419746D01*
X1476Y418557D01*
X1197Y417362D01*
X946Y416160D01*
X725Y414953D01*
X533Y413740D01*
X370Y412523D01*
X237Y411303D01*
X133Y410080D01*
X59Y408854D01*
X15Y407628D01*
X0Y406400D01*
X0Y50800D02*
X15Y49572D01*
X59Y48346D01*
X133Y47120D01*
X237Y45897D01*
X370Y44677D01*
X533Y43460D01*
X725Y42247D01*
X946Y41040D01*
X1197Y39838D01*
X1476Y38643D01*
X1784Y37454D01*
X2121Y36274D01*
X2486Y35102D01*
X2880Y33939D01*
X3301Y32786D01*
X3750Y31644D01*
X4227Y30512D01*
X4731Y29393D01*
X5262Y28286D01*
X5819Y27192D01*
X6402Y26112D01*
X7012Y25046D01*
X7647Y23996D01*
X8307Y22961D01*
X8992Y21942D01*
X9702Y20941D01*
X10435Y19956D01*
X11193Y18990D01*
X11973Y18042D01*
X12776Y17113D01*
X13601Y16204D01*
X14448Y15316D01*
X15316Y14448D01*
X16204Y13601D01*
X17113Y12776D01*
X18042Y11973D01*
X18990Y11193D01*
X19956Y10435D01*
X20941Y9702D01*
X21942Y8992D01*
X22961Y8307D01*
X23996Y7647D01*
X25046Y7012D01*
X26112Y6402D01*
X27192Y5819D01*
X28286Y5262D01*
X29393Y4731D01*
X30512Y4227D01*
X31644Y3750D01*
X32786Y3301D01*
X33939Y2880D01*
X35102Y2486D01*
X36274Y2121D01*
X37454Y1784D01*
X38643Y1476D01*
X39838Y1197D01*
X41040Y946D01*
X42247Y725D01*
X43460Y533D01*
X44677Y370D01*
X45897Y237D01*
X47120Y133D01*
X48346Y59D01*
X49572Y15D01*
X50800Y0D01*
X50800Y457200D02*
X406400Y457200D01*
X463550Y520700D02*
X463550Y50800D01*
X463550Y520700D02*
X463565Y521928D01*
X463609Y523154D01*
X463683Y524380D01*
X463787Y525603D01*
X463920Y526823D01*
X464083Y528040D01*
X464275Y529253D01*
X464496Y530460D01*
X464747Y531662D01*
X465026Y532857D01*
X465334Y534046D01*
X465671Y535226D01*
X466036Y536398D01*
X466430Y537561D01*
X466851Y538714D01*
X467300Y539856D01*
X467777Y540988D01*
X468281Y542107D01*
X468812Y543214D01*
X469369Y544308D01*
X469952Y545388D01*
X470562Y546454D01*
X471197Y547504D01*
X471857Y548539D01*
X472542Y549558D01*
X473252Y550559D01*
X473985Y551544D01*
X474743Y552510D01*
X475523Y553458D01*
X476326Y554387D01*
X477151Y555296D01*
X477998Y556184D01*
X478866Y557052D01*
X479754Y557899D01*
X480663Y558724D01*
X481592Y559527D01*
X482540Y560307D01*
X483506Y561065D01*
X484491Y561798D01*
X485492Y562508D01*
X486511Y563193D01*
X487546Y563853D01*
X488596Y564488D01*
X489662Y565098D01*
X490742Y565681D01*
X491836Y566238D01*
X492943Y566769D01*
X494062Y567273D01*
X495194Y567750D01*
X496336Y568199D01*
X497489Y568620D01*
X498652Y569014D01*
X499824Y569379D01*
X501004Y569716D01*
X502193Y570024D01*
X503388Y570303D01*
X504590Y570554D01*
X505797Y570775D01*
X507010Y570967D01*
X508227Y571130D01*
X509447Y571263D01*
X510670Y571367D01*
X511896Y571441D01*
X513122Y571485D01*
X514350Y571500D01*
X946150Y571500D02*
X947378Y571485D01*
X948604Y571441D01*
X949830Y571367D01*
X951053Y571263D01*
X952273Y571130D01*
X953490Y570967D01*
X954703Y570775D01*
X955910Y570554D01*
X957112Y570303D01*
X958307Y570024D01*
X959496Y569716D01*
X960676Y569379D01*
X961848Y569014D01*
X963011Y568620D01*
X964164Y568199D01*
X965306Y567750D01*
X966438Y567273D01*
X967557Y566769D01*
X968664Y566238D01*
X969758Y565681D01*
X970838Y565098D01*
X971904Y564488D01*
X972954Y563853D01*
X973989Y563193D01*
X975008Y562508D01*
X976009Y561798D01*
X976994Y561065D01*
X977960Y560307D01*
X978908Y559527D01*
X979837Y558724D01*
X980746Y557899D01*
X981634Y557052D01*
X982502Y556184D01*
X983349Y555296D01*
X984174Y554387D01*
X984977Y553458D01*
X985757Y552510D01*
X986515Y551544D01*
X987248Y550559D01*
X987958Y549558D01*
X988643Y548539D01*
X989303Y547504D01*
X989938Y546454D01*
X990548Y545388D01*
X991131Y544308D01*
X991688Y543214D01*
X992219Y542107D01*
X992723Y540988D01*
X993200Y539856D01*
X993649Y538714D01*
X994070Y537561D01*
X994464Y536398D01*
X994829Y535226D01*
X995166Y534046D01*
X995474Y532857D01*
X995753Y531662D01*
X996004Y530460D01*
X996225Y529253D01*
X996417Y528040D01*
X996580Y526823D01*
X996713Y525603D01*
X996817Y524380D01*
X996891Y523154D01*
X996935Y521928D01*
X996950Y520700D01*
X996950Y50800D02*
X996935Y49572D01*
X996891Y48346D01*
X996817Y47120D01*
X996713Y45897D01*
X996580Y44677D01*
X996417Y43460D01*
X996225Y42247D01*
X996004Y41040D01*
X995753Y39838D01*
X995474Y38643D01*
X995166Y37454D01*
X994829Y36274D01*
X994464Y35102D01*
X994070Y33939D01*
X993649Y32786D01*
X993200Y31644D01*
X992723Y30512D01*
X992219Y29393D01*
X991688Y28286D01*
X991131Y27192D01*
X990548Y26112D01*
X989938Y25046D01*
X989303Y23996D01*
X988643Y22961D01*
X987958Y21942D01*
X987248Y20941D01*
X986515Y19956D01*
X985757Y18990D01*
X984977Y18042D01*
X984174Y17113D01*
X983349Y16204D01*
X982502Y15316D01*
X981634Y14448D01*
X980746Y13601D01*
X979837Y12776D01*
X978908Y11973D01*
X977960Y11193D01*
X976994Y10435D01*
X976009Y9702D01*
X975008Y8992D01*
X973989Y8307D01*
X972954Y7647D01*
X971904Y7012D01*
X970838Y6402D01*
X969758Y5819D01*
X968664Y5262D01*
X967557Y4731D01*
X966438Y4227D01*
X965306Y3750D01*
X964164Y3301D01*
X963011Y2880D01*
X961848Y2486D01*
X960676Y2121D01*
X959496Y1784D01*
X958307Y1476D01*
X957112Y1197D01*
X955910Y946D01*
X954703Y725D01*
X953490Y533D01*
X952273Y370D01*
X951053Y237D01*
X949830Y133D01*
X948604Y59D01*
X947378Y15D01*
X946150Y0D01*
X514350Y0D02*
X513122Y15D01*
X511896Y59D01*
X510670Y133D01*
X509447Y237D01*
X508227Y370D01*
X507010Y533D01*
X505797Y725D01*
X504590Y946D01*
X503388Y1197D01*
X502193Y1476D01*
X501004Y1784D01*
X499824Y2121D01*
X498652Y2486D01*
X497489Y2880D01*
X496336Y3301D01*
X495194Y3750D01*
X494062Y4227D01*
X492943Y4731D01*
X491836Y5262D01*
X490742Y5819D01*
X489662Y6402D01*
X488596Y7012D01*
X487546Y7647D01*
X486511Y8307D01*
X485492Y8992D01*
X484491Y9702D01*
X483506Y10435D01*
X482540Y11193D01*
X481592Y11973D01*
X480663Y12776D01*
X479754Y13601D01*
X478866Y14448D01*
X477998Y15316D01*
X477151Y16204D01*
X476326Y17113D01*
X475523Y18042D01*
X474743Y18990D01*
X473985Y19956D01*
X473252Y20941D01*
X472542Y21942D01*
X471857Y22961D01*
X471197Y23996D01*
X470562Y25046D01*
X469952Y26112D01*
X469369Y27192D01*
X468812Y28286D01*
X468281Y29393D01*
X467777Y30512D01*
X467300Y31644D01*
X466851Y32786D01*
X466430Y33939D01*
X466036Y35102D01*
X465671Y36274D01*
X465334Y37454D01*
X465026Y38643D01*
X464747Y39838D01*
X464496Y41040D01*
X464275Y42247D01*
X464083Y43460D01*
X463920Y44677D01*
X463787Y45897D01*
X463683Y47120D01*
X463609Y48346D01*
X463565Y49572D01*
X463550Y50800D01*
X457200Y406400D02*
X457185Y407628D01*
X457141Y408854D01*
X457067Y410080D01*
X456963Y411303D01*
X456830Y412523D01*
X456667Y413740D01*
X456475Y414953D01*
X456254Y416160D01*
X456003Y417362D01*
X455724Y418557D01*
X455416Y419746D01*
X455079Y420926D01*
X454714Y422098D01*
X454320Y423261D01*
X453899Y424414D01*
X453450Y425556D01*
X452973Y426688D01*
X452469Y427807D01*
X451938Y428914D01*
X451381Y430008D01*
X450798Y431088D01*
X450188Y432154D01*
X449553Y433204D01*
X448893Y434239D01*
X448208Y435258D01*
X447498Y436259D01*
X446765Y437244D01*
X446007Y438210D01*
X445227Y439158D01*
X444424Y440087D01*
X443599Y440996D01*
X442752Y441884D01*
X441884Y442752D01*
X440996Y443599D01*
X440087Y444424D01*
X439158Y445227D01*
X438210Y446007D01*
X437244Y446765D01*
X436259Y447498D01*
X435258Y448208D01*
X434239Y448893D01*
X433204Y449553D01*
X432154Y450188D01*
X431088Y450798D01*
X430008Y451381D01*
X428914Y451938D01*
X427807Y452469D01*
X426688Y452973D01*
X425556Y453450D01*
X424414Y453899D01*
X423261Y454320D01*
X422098Y454714D01*
X420926Y455079D01*
X419746Y455416D01*
X418557Y455724D01*
X417362Y456003D01*
X416160Y456254D01*
X414953Y456475D01*
X413740Y456667D01*
X412523Y456830D01*
X411303Y456963D01*
X410080Y457067D01*
X408854Y457141D01*
X407628Y457185D01*
X406400Y457200D01*
X457200Y50800D02*
X457185Y49572D01*
X457141Y48346D01*
X457067Y47120D01*
X456963Y45897D01*
X456830Y44677D01*
X456667Y43460D01*
X456475Y42247D01*
X456254Y41040D01*
X456003Y39838D01*
X455724Y38643D01*
X455416Y37454D01*
X455079Y36274D01*
X454714Y35102D01*
X454320Y33939D01*
X453899Y32786D01*
X453450Y31644D01*
X452973Y30512D01*
X452469Y29393D01*
X451938Y28286D01*
X451381Y27192D01*
X450798Y26112D01*
X450188Y25046D01*
X449553Y23996D01*
X448893Y22961D01*
X448208Y21942D01*
X447498Y20941D01*
X446765Y19956D01*
X446007Y18990D01*
X445227Y18042D01*
X444424Y17113D01*
X443599Y16204D01*
X442752Y15316D01*
X441884Y14448D01*
X440996Y13601D01*
X440087Y12776D01*
X439158Y11973D01*
X438210Y11193D01*
X437244Y10435D01*
X436259Y9702D01*
X435258Y8992D01*
X434239Y8307D01*
X433204Y7647D01*
X432154Y7012D01*
X431088Y6402D01*
X430008Y5819D01*
X428914Y5262D01*
X427807Y4731D01*
X426688Y4227D01*
X425556Y3750D01*
X424414Y3301D01*
X423261Y2880D01*
X422098Y2486D01*
X420926Y2121D01*
X419746Y1784D01*
X418557Y1476D01*
X417362Y1197D01*
X416160Y946D01*
X414953Y725D01*
X413740Y533D01*
X412523Y370D01*
X411303Y237D01*
X410080Y133D01*
X408854Y59D01*
X407628Y15D01*
X406400Y0D01*
X457200Y50800D02*
X457200Y406400D01*
D11*
X0Y0D02*
X996950Y0D01*
X996950Y571500D01*
X0Y571500D01*
X0Y0D01*
D12*
X0Y0D02*
X996950Y0D01*
X996950Y571500D01*
X0Y571500D01*
X0Y0D01*
M02*
